<?xml version="1.0" standalone="no"?>
<!DOCTYPE svg PUBLIC "-//W3C//DTD SVG 20010904//EN"
 "http://www.w3.org/TR/2001/REC-SVG-20010904/DTD/svg10.dtd">
<svg version="1.0" xmlns="http://www.w3.org/2000/svg"
 width="32.000000pt" height="32.000000pt" viewBox="0 0 32.000000 32.000000"
 preserveAspectRatio="xMidYMid meet">

<g transform="translate(0.000000,32.000000) scale(0.100000,-0.100000)"
fill="#dddddd" stroke="none">
<path d="M77 294 c-51 -33 -77 -79 -77 -134 0 -120 144 -202 241 -137 108 73
106 210 -5 278 -44 27 -111 24 -159 -7z m153 -6 c29 -15 50 -36 63 -60 23 -45
16 -58 -28 -58 -43 0 -61 26 -37 55 16 19 16 19 -2 3 -14 -12 -25 -14 -42 -7
-14 5 -34 5 -48 0 -17 -7 -28 -5 -42 7 -18 16 -18 16 -2 -3 24 -29 6 -55 -37
-55 -19 0 -36 4 -39 8 -3 5 4 27 15 50 14 28 33 47 62 61 54 27 82 26 137 -1z
m-45 -108 l25 23 0 -41 0 -42 -50 0 -50 0 0 42 0 41 25 -23 25 -23 25 23z
m-86 -44 c5 -13 17 -26 27 -30 15 -6 15 -9 -6 -31 -14 -15 -18 -25 -11 -25 7
0 21 10 32 23 l19 22 19 -23 c11 -12 25 -22 32 -22 7 0 3 10 -11 25 -21 22
-21 25 -6 31 10 4 22 17 27 30 7 19 16 24 44 24 47 0 53 -19 23 -71 -25 -44
-79 -79 -124 -79 -52 0 -111 38 -134 85 -12 25 -19 49 -15 55 3 5 22 10 41 10
27 0 36 -5 43 -24z"/>
<path d="M140 255 c-13 -16 -12 -17 20 -17 11 0 23 0 26 1 9 1 -16 31 -26 31
-4 0 -13 -7 -20 -15z"/>
</g>
</svg>
