<?xml version="1.0" standalone="no"?>
<!DOCTYPE svg PUBLIC "-//W3C//DTD SVG 20010904//EN"
 "http://www.w3.org/TR/2001/REC-SVG-20010904/DTD/svg10.dtd">
<svg version="1.0" xmlns="http://www.w3.org/2000/svg"
 width="32.000000pt" height="32.000000pt" viewBox="0 0 32.000000 32.000000"
 preserveAspectRatio="xMidYMid meet">

<g transform="translate(0.000000,32.000000) scale(0.100000,-0.100000)"
fill="#aaaaaa" stroke="none">
<path d="M77 294 c-51 -33 -77 -79 -77 -134 0 -120 144 -202 241 -137 108 73
106 210 -5 278 -44 27 -111 24 -159 -7z m76 4 c4 -10 8 -10 15 1 17 24 101
-25 126 -73 19 -37 19 -39 1 -49 -18 -9 -18 -10 1 -24 18 -13 18 -15 -6 -59
-17 -34 -36 -52 -67 -67 -38 -19 -45 -19 -54 -7 -8 13 -10 13 -18 1 -7 -11
-17 -10 -54 8 -35 17 -51 33 -68 68 -21 43 -21 46 -4 56 17 9 17 11 2 22 -27
19 13 88 66 114 49 24 54 25 60 9z"/>
<path d="M92 228 c-7 -7 -12 -18 -12 -25 0 -6 -8 -17 -17 -22 -17 -10 -17 -12
-2 -24 9 -7 18 -21 20 -32 3 -11 21 -28 42 -38 35 -16 39 -16 74 0 21 10 39
27 42 38 2 11 11 25 20 32 15 12 15 14 -1 24 -10 5 -18 16 -18 24 0 8 -9 19
-19 25 -27 14 -114 13 -129 -2z m39 -49 c13 -24 45 -24 58 0 22 40 36 31 33
-20 l-4 -49 -58 0 -58 0 -4 49 c-3 51 11 60 33 20z"/>
</g>
</svg>
